# This file uses centimeters as units for non-parametric coordinates.

mtllib tablo_lp.mtl
g default
v -84.472336 24.955858 5.920102
v -84.472336 25.985786 5.920102
v -84.472336 24.955858 1.845680
v -84.472336 25.985786 1.845680
v -64.217812 24.955858 1.845680
v -64.217812 25.985786 1.845680
v -64.217812 24.955858 5.920102
v -64.217812 25.985786 5.920102
vt 0.498303 0.103356
vt 0.498307 0.128495
vt 0.003928 0.128583
vt 0.003924 0.103444
vt 0.003951 0.253172
vt 0.003946 0.228033
vt 0.498325 0.227945
vt 0.498330 0.253083
vt 0.003906 0.003994
vt 0.498285 0.003906
vn 0.000000 -0.969505 -0.245070
vn 0.000000 0.969505 -0.245070
vn 0.000000 0.969505 -0.245070
vn 0.000000 -0.969505 -0.245070
vn 0.000000 -0.969505 0.245070
vn 0.000000 0.969505 0.245070
vn 0.000000 0.969505 0.245070
vn 0.000000 -0.969505 0.245070
s 1
g polySurface37 table_start
usemtl blinn1SG
f 3/1/1 4/2/2 6/3/3 5/4/4
f 7/5/5 8/6/6 2/7/7 1/8/8
f 2/7/7 8/6/6 6/3/3 4/2/2
f 7/9/5 1/10/8 3/1/1 5/4/4
g default
v -65.102737 0.010937 -6.110193
v -65.102737 0.010937 -5.069368
v -64.265038 0.010937 -4.565750
v -63.417213 0.010937 -5.086162
v -63.406906 0.010937 -6.110192
v -64.254730 0.010937 -6.630605
v -65.102737 3.279701 -6.064953
v -65.102737 3.279701 -5.069368
v -64.265038 3.279701 -4.565750
v -63.417213 3.279701 -5.086162
v -63.406906 3.279701 -6.064952
v -64.254730 3.279701 -6.585365
v -65.102737 6.559401 -6.064953
v -65.102737 6.559401 -5.069368
v -64.265038 6.559401 -4.565750
v -63.417213 6.559401 -5.086162
v -63.406906 6.559401 -6.064952
v -64.254730 6.559401 -6.585365
v -65.102737 9.839098 -6.055618
v -65.102737 9.839098 -5.069368
v -64.265038 9.839098 -4.565750
v -63.417213 9.839098 -5.086162
v -63.406906 9.839098 -6.055618
v -64.254730 9.839098 -6.576030
v -65.102737 13.118798 -6.055618
v -65.102737 13.118798 -5.069368
v -64.265038 13.118797 -4.565750
v -63.417213 13.118797 -5.086162
v -63.406906 13.118797 -6.055618
v -64.254730 13.118798 -6.576030
v -65.102730 16.397491 -6.064009
v -65.102737 16.398497 -5.069368
v -64.265038 16.398495 -4.565750
v -63.417213 16.398495 -5.086162
v -63.406898 16.397490 -6.064008
v -64.254715 16.397490 -6.584421
v -65.143196 19.647493 -5.994434
v -65.064423 19.612064 -5.006950
v -64.226723 19.617409 -4.503332
v -63.378899 19.612062 -5.023745
v -63.447365 19.647493 -5.994433
v -64.295189 19.591452 -6.514846
v -65.143204 22.929165 -5.077162
v -65.060768 22.414520 -4.197674
v -64.212761 22.205118 -3.757328
v -63.364937 22.414522 -4.197673
v -63.447372 22.929165 -5.077162
v -64.295197 23.071112 -5.517508
v -65.102737 25.280210 -2.501229
v -65.102707 24.305008 -1.960110
v -64.254692 23.933590 -1.739616
v -63.406872 24.305012 -1.960109
v -63.406906 25.280210 -2.501229
v -64.254730 25.726700 -2.721723
v -65.102737 25.923397 0.919577
v -65.102737 24.970882 0.919580
v -64.254730 24.509136 0.919579
v -63.406906 24.970882 0.919578
v -63.406906 25.923397 0.919578
v -64.254730 26.415651 0.919578
v -65.102737 25.949585 4.536182
v -65.102737 24.995098 4.536182
v -64.254730 24.517853 4.536182
v -63.406906 24.995098 4.536182
v -63.406906 25.949587 4.536180
v -64.254730 26.426832 4.536180
v -65.102737 25.949585 7.083397
v -65.102737 24.995096 7.083398
v -64.254730 24.517853 7.083398
v -63.406906 24.995098 7.083398
v -63.406906 25.949587 7.083396
v -64.254730 26.426832 7.083395
vt 0.851790 0.354613
vt 0.851790 0.380074
vt 0.784662 0.378629
vt 0.784827 0.354521
vt 0.851790 0.402211
vt 0.784590 0.402211
vt 0.851790 0.258519
vt 0.851790 0.280922
vt 0.784636 0.282515
vt 0.784445 0.258519
vt 0.851790 0.305974
vt 0.784810 0.306209
vt 0.851790 0.330292
vt 0.784901 0.330362
vt 0.704287 0.378539
vt 0.704317 0.354440
vt 0.704285 0.402211
vt 0.704245 0.282611
vt 0.704205 0.258519
vt 0.704301 0.306300
vt 0.704335 0.330366
vt 0.623812 0.378480
vt 0.623807 0.354534
vt 0.623847 0.402211
vt 0.623788 0.282672
vt 0.623806 0.258519
vt 0.623796 0.306212
vt 0.623808 0.330371
vt 0.543162 0.378517
vt 0.543202 0.354550
vt 0.543173 0.402211
vt 0.543186 0.282612
vt 0.543222 0.258519
vt 0.543227 0.306143
vt 0.543255 0.330351
vt 0.462068 0.378752
vt 0.462871 0.354615
vt 0.461436 0.402211
vt 0.462127 0.282346
vt 0.461633 0.258519
vt 0.462997 0.306057
vt 0.463242 0.330318
vt 0.381196 0.378248
vt 0.385077 0.354793
vt 0.378343 0.402211
vt 0.381291 0.283016
vt 0.378595 0.258519
vt 0.385207 0.306133
vt 0.388615 0.330483
vt 0.306979 0.378138
vt 0.308312 0.353518
vt 0.305332 0.402211
vt 0.307211 0.282662
vt 0.305576 0.258519
vt 0.308332 0.307347
vt 0.310897 0.330414
vt 0.231803 0.379140
vt 0.232214 0.353446
vt 0.231433 0.402211
vt 0.232120 0.281488
vt 0.231643 0.258519
vt 0.232247 0.307115
vt 0.231991 0.330282
vt 0.156982 0.378175
vt 0.153596 0.354855
vt 0.158631 0.402211
vt 0.157146 0.282525
vt 0.158846 0.258519
vt 0.153683 0.305815
vt 0.151891 0.330332
vt 0.066782 0.378240
vt 0.066326 0.354513
vt 0.067149 0.402211
vt 0.066943 0.282320
vt 0.067337 0.258519
vt 0.066409 0.305945
vt 0.066194 0.330211
vt 0.003906 0.377918
vt 0.003906 0.354182
vt 0.003906 0.402211
vt 0.003906 0.281681
vt 0.003906 0.258519
vt 0.003906 0.305463
vt 0.003906 0.329826
vn -0.873949 0.006726 -0.485972
vn -0.876046 0.000000 0.482227
vn -0.874517 0.000000 0.484995
vn -0.875184 0.003335 -0.483778
vn 0.009963 0.000000 0.999950
vn 0.009963 0.000000 0.999950
vn 0.871060 -0.000041 0.491177
vn 0.869482 -0.000021 0.493965
vn 0.874229 0.006759 -0.485467
vn 0.875481 0.003351 -0.483241
vn 0.000000 0.013839 -0.999904
vn 0.000001 0.006924 -0.999976
vn -0.872642 -0.000000 0.488361
vn -0.872230 0.000696 -0.489096
vn 0.009963 -0.000000 0.999950
vn 0.867549 -0.000004 0.497352
vn 0.872497 0.000700 -0.488620
vn 0.000000 0.001422 -0.999999
vn -0.871991 -0.000000 0.489523
vn -0.871963 0.000696 -0.489572
vn 0.009963 0.000000 0.999950
vn 0.866877 -0.000004 0.498522
vn 0.872228 0.000700 -0.489100
vn 0.000000 0.001424 -0.999999
vn -0.871948 0.000000 0.489599
vn -0.871921 -0.000625 -0.489647
vn 0.009963 0.000000 0.999950
vn 0.866832 0.000003 0.498600
vn 0.872187 -0.000630 -0.489173
vn -0.000000 -0.001280 -0.999999
vn -0.869430 -0.003237 0.494045
vn -0.875022 0.002476 -0.484076
vn 0.008036 -0.009675 0.999921
vn 0.873264 -0.006245 0.487207
vn 0.866489 0.006797 -0.499150
vn 0.002098 0.009399 -0.999954
vn -0.878484 -0.064097 0.473452
vn -0.857277 0.082264 -0.508241
vn 0.009025 -0.148514 0.988869
vn 0.906908 -0.057394 0.417402
vn 0.827815 0.093877 -0.553091
vn -0.002132 0.142416 -0.989805
vn -0.908261 -0.220795 0.355403
vn -0.824174 0.310676 -0.473517
vn 0.005471 -0.552150 0.833727
vn 0.936476 -0.188399 0.295835
vn 0.796037 0.324157 -0.511124
vn -0.001809 0.508616 -0.860991
vn -0.909733 -0.370247 0.187890
vn -0.817389 0.514790 -0.258586
vn -0.002193 -0.897932 0.440129
vn 0.919213 -0.352444 0.175585
vn 0.809722 0.521066 -0.269890
vn 0.001749 0.891558 -0.452903
vn -0.883205 -0.466849 0.044744
vn -0.844659 0.532724 -0.052497
vn 0.000000 -0.994717 0.102655
vn 0.883250 -0.466764 0.044740
vn 0.844707 0.532650 -0.052488
vn -0.000002 0.995708 -0.092545
vn -0.860159 -0.510024 0.001361
vn -0.860402 0.509614 -0.001546
vn 0.000000 -0.999996 0.002672
vn 0.860207 -0.509943 0.001361
vn 0.860449 0.509534 -0.001546
vn -0.000001 0.999995 -0.003030
vn -0.860403 -0.509614 -0.000000
vn -0.860404 0.509613 0.000000
vn 0.000001 -1.000000 -0.000000
vn 0.860452 -0.509531 0.000000
vn 0.860453 0.509530 0.000000
vn -0.000001 1.000000 0.000000
s 1
g table_start polySurface38
usemtl blinn1SG
f 9/11/9 10/12/10 16/13/11 15/14/12
f 10/12/10 11/15/13 17/16/14 16/13/11
f 11/17/13 12/18/15 18/19/16 17/20/14
f 12/18/15 13/21/17 19/22/18 18/19/16
f 13/21/17 14/23/19 20/24/20 19/22/18
f 14/23/19 9/11/9 15/14/12 20/24/20
f 15/14/12 16/13/11 22/25/21 21/26/22
f 16/13/11 17/16/14 23/27/23 22/25/21
f 17/20/14 18/19/16 24/28/24 23/29/23
f 18/19/16 19/22/18 25/30/25 24/28/24
f 19/22/18 20/24/20 26/31/26 25/30/25
f 20/24/20 15/14/12 21/26/22 26/31/26
f 21/26/22 22/25/21 28/32/27 27/33/28
f 22/25/21 23/27/23 29/34/29 28/32/27
f 23/29/23 24/28/24 30/35/30 29/36/29
f 24/28/24 25/30/25 31/37/31 30/35/30
f 25/30/25 26/31/26 32/38/32 31/37/31
f 26/31/26 21/26/22 27/33/28 32/38/32
f 27/33/28 28/32/27 34/39/33 33/40/34
f 28/32/27 29/34/29 35/41/35 34/39/33
f 29/36/29 30/35/30 36/42/36 35/43/35
f 30/35/30 31/37/31 37/44/37 36/42/36
f 31/37/31 32/38/32 38/45/38 37/44/37
f 32/38/32 27/33/28 33/40/34 38/45/38
f 33/40/34 34/39/33 40/46/39 39/47/40
f 34/39/33 35/41/35 41/48/41 40/46/39
f 35/43/35 36/42/36 42/49/42 41/50/41
f 36/42/36 37/44/37 43/51/43 42/49/42
f 37/44/37 38/45/38 44/52/44 43/51/43
f 38/45/38 33/40/34 39/47/40 44/52/44
f 39/47/40 40/46/39 46/53/45 45/54/46
f 40/46/39 41/48/41 47/55/47 46/53/45
f 41/50/41 42/49/42 48/56/48 47/57/47
f 42/49/42 43/51/43 49/58/49 48/56/48
f 43/51/43 44/52/44 50/59/50 49/58/49
f 44/52/44 39/47/40 45/54/46 50/59/50
f 45/54/46 46/53/45 52/60/51 51/61/52
f 46/53/45 47/55/47 53/62/53 52/60/51
f 47/57/47 48/56/48 54/63/54 53/64/53
f 48/56/48 49/58/49 55/65/55 54/63/54
f 49/58/49 50/59/50 56/66/56 55/65/55
f 50/59/50 45/54/46 51/61/52 56/66/56
f 51/61/52 52/60/51 58/67/57 57/68/58
f 52/60/51 53/62/53 59/69/59 58/67/57
f 53/64/53 54/63/54 60/70/60 59/71/59
f 54/63/54 55/65/55 61/72/61 60/70/60
f 55/65/55 56/66/56 62/73/62 61/72/61
f 56/66/56 51/61/52 57/68/58 62/73/62
f 57/68/58 58/67/57 64/74/63 63/75/64
f 58/67/57 59/69/59 65/76/65 64/74/63
f 59/71/59 60/70/60 66/77/66 65/78/65
f 60/70/60 61/72/61 67/79/67 66/77/66
f 61/72/61 62/73/62 68/80/68 67/79/67
f 62/73/62 57/68/58 63/75/64 68/80/68
f 63/75/64 64/74/63 70/81/69 69/82/70
f 64/74/63 65/76/65 71/83/71 70/81/69
f 65/78/65 66/77/66 72/84/72 71/85/71
f 66/77/66 67/79/67 73/86/73 72/84/72
f 67/79/67 68/80/68 74/87/74 73/86/73
f 68/80/68 63/75/64 69/82/70 74/87/74
f 69/82/70 70/81/69 76/88/75 75/89/76
f 70/81/69 71/83/71 77/90/77 76/88/75
f 71/85/71 72/84/72 78/91/78 77/92/77
f 72/84/72 73/86/73 79/93/79 78/91/78
f 73/86/73 74/87/74 80/94/80 79/93/79
f 74/87/74 69/82/70 75/89/76 80/94/80
g default
v -85.159271 0.010937 -6.111190
v -85.159271 0.010937 -5.070365
v -84.321564 0.010937 -4.566747
v -83.473740 0.010937 -5.087159
v -83.463440 0.010937 -6.111190
v -84.311256 0.010937 -6.631602
v -85.159271 3.279701 -6.065950
v -85.159271 3.279701 -5.070366
v -84.321564 3.279701 -4.566747
v -83.473740 3.279701 -5.087159
v -83.463440 3.279701 -6.065949
v -84.311264 3.279701 -6.586362
v -85.159271 6.559401 -6.065950
v -85.159271 6.559401 -5.070365
v -84.321564 6.559401 -4.566747
v -83.473740 6.559401 -5.087159
v -83.463440 6.559401 -6.065949
v -84.311264 6.559401 -6.586362
v -85.159271 9.839098 -6.056616
v -85.159271 9.839098 -5.070365
v -84.321564 9.839098 -4.566747
v -83.473740 9.839098 -5.087159
v -83.463440 9.839098 -6.056615
v -84.311264 9.839098 -6.577027
v -85.159271 13.118798 -6.056616
v -85.159271 13.118798 -5.070365
v -84.321564 13.118797 -4.566747
v -83.473740 13.118797 -5.087159
v -83.463440 13.118797 -6.056615
v -84.311264 13.118798 -6.577027
v -85.159256 16.397491 -6.065006
v -85.159271 16.398497 -5.070365
v -84.321564 16.398495 -4.566747
v -83.473740 16.398495 -5.087159
v -83.463425 16.397490 -6.065005
v -84.311249 16.397490 -6.585418
v -85.199722 19.647493 -5.995431
v -85.120956 19.612064 -5.007947
v -84.283249 19.617409 -4.504329
v -83.435425 19.612062 -5.024742
v -83.503891 19.647493 -5.995431
v -84.351715 19.058302 -6.515843
v -85.199738 22.929165 -5.078159
v -85.117294 22.414520 -4.198671
v -84.269287 22.205118 -3.758325
v -83.421463 22.414522 -4.198670
v -83.503906 22.929165 -5.078159
v -84.351723 22.537962 -5.518505
v -85.159271 25.280210 -2.502227
v -85.159225 24.305008 -1.961107
v -84.311218 23.933590 -1.740613
v -83.463394 24.305012 -1.961106
v -83.463440 25.280210 -2.502226
v -84.311256 25.726700 -2.722720
v -85.159271 25.923397 0.918580
v -85.159271 24.970882 0.918583
v -84.311256 24.509136 0.918582
v -83.463440 24.970882 0.918581
v -83.463440 25.923397 0.918581
v -84.311256 26.415651 0.918581
v -85.159271 25.949585 4.535186
v -85.159271 24.995098 4.535186
v -84.311256 24.517853 4.535186
v -83.463440 24.995098 4.535186
v -83.463440 25.949587 4.535184
v -84.311256 26.426832 4.535184
v -85.159271 25.949585 7.082399
v -85.159271 24.995096 7.082401
v -84.311256 24.517853 7.082401
v -83.463440 24.995098 7.082401
v -83.463440 25.949587 7.082399
v -84.311256 26.426832 7.082397
vt 0.950148 0.003906
vt 0.974779 0.003906
vt 0.973297 0.068868
vt 0.949985 0.068699
vt 0.996094 0.003906
vt 0.996094 0.068942
vt 0.857107 0.003906
vt 0.878858 0.003906
vt 0.880328 0.068868
vt 0.857107 0.069048
vt 0.903094 0.003906
vt 0.903254 0.068705
vt 0.926620 0.003906
vt 0.926618 0.068621
vt 0.973198 0.146624
vt 0.949889 0.146589
vt 0.996094 0.146631
vt 0.880412 0.146640
vt 0.857107 0.146674
vt 0.903325 0.146591
vt 0.926604 0.146565
vt 0.973140 0.224476
vt 0.949978 0.224475
vt 0.996094 0.224448
vt 0.880469 0.224476
vt 0.857107 0.224453
vt 0.903238 0.224474
vt 0.926606 0.224468
vt 0.973176 0.302498
vt 0.949994 0.302453
vt 0.996094 0.302493
vt 0.880411 0.302451
vt 0.857107 0.302410
vt 0.903171 0.302417
vt 0.926586 0.302396
vt 0.973403 0.380949
vt 0.950057 0.380167
vt 0.996094 0.381567
vt 0.880154 0.380869
vt 0.857107 0.381341
vt 0.903089 0.380033
vt 0.926555 0.379802
vt 0.972916 0.459186
vt 0.950229 0.455426
vt 0.996094 0.461952
vt 0.880801 0.459071
vt 0.857107 0.461674
vt 0.903162 0.455289
vt 0.926715 0.451997
vt 0.972809 0.530985
vt 0.948996 0.529689
vt 0.996094 0.532584
vt 0.880459 0.530737
vt 0.857107 0.532314
vt 0.904336 0.529659
vt 0.926648 0.527183
vt 0.973778 0.603711
vt 0.948925 0.603307
vt 0.996094 0.604074
vt 0.879324 0.603381
vt 0.857107 0.603837
vt 0.904111 0.603264
vt 0.926520 0.603517
vt 0.972844 0.676094
vt 0.950286 0.679363
vt 0.996094 0.674504
vt 0.880325 0.675911
vt 0.857107 0.674262
vt 0.902852 0.679267
vt 0.926565 0.681007
vt 0.972893 0.763351
vt 0.949934 0.763785
vt 0.996094 0.763005
vt 0.880113 0.763171
vt 0.857107 0.762789
vt 0.902956 0.763695
vt 0.926425 0.763908
vt 0.972491 0.824161
vt 0.949528 0.824161
vt 0.996094 0.824161
vt 0.879390 0.824161
vt 0.857107 0.824161
vt 0.902397 0.824161
vt 0.925966 0.824161
vn -0.873948 0.006726 -0.485973
vn -0.876045 -0.000000 0.482230
vn -0.874515 0.000000 0.484999
vn -0.875184 0.003334 -0.483779
vn 0.009963 -0.000000 0.999950
vn 0.009963 0.000000 0.999950
vn 0.871062 -0.000041 0.491174
vn 0.869484 -0.000021 0.493961
vn 0.874228 0.006760 -0.485469
vn 0.875479 0.003351 -0.483244
vn 0.000001 0.013839 -0.999904
vn 0.000000 0.006924 -0.999976
vn -0.872640 -0.000000 0.488364
vn -0.872230 0.000696 -0.489096
vn 0.009963 0.000000 0.999950
vn 0.867551 -0.000003 0.497349
vn 0.872495 0.000701 -0.488623
vn 0.000000 0.001423 -0.999999
vn -0.871989 -0.000000 0.489526
vn -0.871963 0.000696 -0.489572
vn 0.009963 0.000000 0.999950
vn 0.866879 -0.000003 0.498518
vn 0.872226 0.000701 -0.489103
vn 0.000001 0.001424 -0.999999
vn -0.871946 0.000001 0.489602
vn -0.871921 -0.000625 -0.489647
vn 0.009963 0.000000 0.999950
vn 0.866834 0.000003 0.498598
vn 0.872185 -0.000631 -0.489176
vn -0.000000 -0.001280 -0.999999
vn -0.869430 -0.003237 0.494046
vn -0.880831 0.002533 -0.473423
vn 0.008036 -0.009675 0.999921
vn 0.873265 -0.006247 0.487206
vn 0.871380 0.006947 -0.490560
vn 0.002380 0.009795 -0.999949
vn -0.878484 -0.064096 0.473453
vn -0.838648 0.111263 -0.533188
vn 0.009025 -0.148513 0.988869
vn 0.906908 -0.057393 0.417401
vn 0.805402 0.121294 -0.580185
vn -0.002488 0.108384 -0.994106
vn -0.908259 -0.220797 0.355407
vn -0.772450 0.373554 -0.513594
vn 0.005471 -0.552147 0.833729
vn 0.936477 -0.188398 0.295832
vn 0.740732 0.384872 -0.550626
vn -0.001035 0.427780 -0.903883
vn -0.909729 -0.370257 0.187891
vn -0.789466 0.538269 -0.294977
vn -0.002193 -0.897932 0.440128
vn 0.919215 -0.352440 0.175583
vn 0.781923 0.544314 -0.303840
vn 0.000978 0.878393 -0.477939
vn -0.883201 -0.466856 0.044744
vn -0.844659 0.532725 -0.052497
vn 0.000000 -0.994717 0.102655
vn 0.883251 -0.466760 0.044740
vn 0.844708 0.532648 -0.052488
vn -0.000001 0.995709 -0.092545
vn -0.860157 -0.510027 0.001361
vn -0.860400 0.509616 -0.001546
vn 0.000000 -0.999996 0.002672
vn 0.860208 -0.509942 0.001361
vn 0.860453 0.509528 -0.001546
vn -0.000000 0.999995 -0.003030
vn -0.860401 -0.509617 -0.000000
vn -0.860404 0.509613 0.000000
vn 0.000001 -1.000000 -0.000000
vn 0.860454 -0.509529 0.000000
vn 0.860456 0.509526 0.000000
vn -0.000001 1.000000 0.000000
s 1
g table_start polySurface39
usemtl blinn1SG
f 81/95/81 82/96/82 88/97/83 87/98/84
f 82/96/82 83/99/85 89/100/86 88/97/83
f 83/101/85 84/102/87 90/103/88 89/104/86
f 84/102/87 85/105/89 91/106/90 90/103/88
f 85/105/89 86/107/91 92/108/92 91/106/90
f 86/107/91 81/95/81 87/98/84 92/108/92
f 87/98/84 88/97/83 94/109/93 93/110/94
f 88/97/83 89/100/86 95/111/95 94/109/93
f 89/104/86 90/103/88 96/112/96 95/113/95
f 90/103/88 91/106/90 97/114/97 96/112/96
f 91/106/90 92/108/92 98/115/98 97/114/97
f 92/108/92 87/98/84 93/110/94 98/115/98
f 93/110/94 94/109/93 100/116/99 99/117/100
f 94/109/93 95/111/95 101/118/101 100/116/99
f 95/113/95 96/112/96 102/119/102 101/120/101
f 96/112/96 97/114/97 103/121/103 102/119/102
f 97/114/97 98/115/98 104/122/104 103/121/103
f 98/115/98 93/110/94 99/117/100 104/122/104
f 99/117/100 100/116/99 106/123/105 105/124/106
f 100/116/99 101/118/101 107/125/107 106/123/105
f 101/120/101 102/119/102 108/126/108 107/127/107
f 102/119/102 103/121/103 109/128/109 108/126/108
f 103/121/103 104/122/104 110/129/110 109/128/109
f 104/122/104 99/117/100 105/124/106 110/129/110
f 105/124/106 106/123/105 112/130/111 111/131/112
f 106/123/105 107/125/107 113/132/113 112/130/111
f 107/127/107 108/126/108 114/133/114 113/134/113
f 108/126/108 109/128/109 115/135/115 114/133/114
f 109/128/109 110/129/110 116/136/116 115/135/115
f 110/129/110 105/124/106 111/131/112 116/136/116
f 111/131/112 112/130/111 118/137/117 117/138/118
f 112/130/111 113/132/113 119/139/119 118/137/117
f 113/134/113 114/133/114 120/140/120 119/141/119
f 114/133/114 115/135/115 121/142/121 120/140/120
f 115/135/115 116/136/116 122/143/122 121/142/121
f 116/136/116 111/131/112 117/138/118 122/143/122
f 117/138/118 118/137/117 124/144/123 123/145/124
f 118/137/117 119/139/119 125/146/125 124/144/123
f 119/141/119 120/140/120 126/147/126 125/148/125
f 120/140/120 121/142/121 127/149/127 126/147/126
f 121/142/121 122/143/122 128/150/128 127/149/127
f 122/143/122 117/138/118 123/145/124 128/150/128
f 123/145/124 124/144/123 130/151/129 129/152/130
f 124/144/123 125/146/125 131/153/131 130/151/129
f 125/148/125 126/147/126 132/154/132 131/155/131
f 126/147/126 127/149/127 133/156/133 132/154/132
f 127/149/127 128/150/128 134/157/134 133/156/133
f 128/150/128 123/145/124 129/152/130 134/157/134
f 129/152/130 130/151/129 136/158/135 135/159/136
f 130/151/129 131/153/131 137/160/137 136/158/135
f 131/155/131 132/154/132 138/161/138 137/162/137
f 132/154/132 133/156/133 139/163/139 138/161/138
f 133/156/133 134/157/134 140/164/140 139/163/139
f 134/157/134 129/152/130 135/159/136 140/164/140
f 135/159/136 136/158/135 142/165/141 141/166/142
f 136/158/135 137/160/137 143/167/143 142/165/141
f 137/162/137 138/161/138 144/168/144 143/169/143
f 138/161/138 139/163/139 145/170/145 144/168/144
f 139/163/139 140/164/140 146/171/146 145/170/145
f 140/164/140 135/159/136 141/166/142 146/171/146
f 141/166/142 142/165/141 148/172/147 147/173/148
f 142/165/141 143/167/143 149/174/149 148/172/147
f 143/169/143 144/168/144 150/175/150 149/176/149
f 144/168/144 145/170/145 151/177/151 150/175/150
f 145/170/145 146/171/146 152/178/152 151/177/151
f 146/171/146 141/166/142 147/173/148 152/178/152
