# This file uses centimeters as units for non-parametric coordinates.

mtllib LP_sun.mtl
g default
v -10.508591 2.810860 -20.997581
v -8.885208 2.810860 -22.598862
v -8.885208 5.029480 -22.598862
v -10.508591 5.029480 -20.997581
v -14.372002 2.810860 -11.643753
v -13.621361 2.810860 -15.952820
v -0.647194 2.810860 -18.406235
v -12.449554 2.810860 -18.377045
v -13.609085 2.810860 -7.426521
v -13.803253 2.810860 -8.268707
v -13.621361 5.029480 -15.952820
v -14.372002 5.029480 -11.643753
v -12.449554 5.029480 -18.377045
v -0.647194 5.029480 -18.406235
v -13.803253 5.029480 -8.268707
v -13.609085 5.029480 -7.426521
v -11.768509 2.810860 -3.926052
v -13.314034 2.810860 -6.876747
v 5.656326 2.810860 -19.699722
v -13.314034 5.029480 -6.876747
v -11.768509 5.029480 -3.926052
v 5.656326 5.029480 -19.699722
v 12.522591 2.810860 -11.643753
v 12.522591 5.029480 -11.643753
v -8.722404 2.810860 -0.902176
v -9.407768 2.810860 -1.530540
v -9.407768 5.029480 -1.530540
v -8.722404 5.029480 -0.902176
v 11.954803 2.810860 -15.778038
v 11.954803 5.029480 -15.778038
v 11.942436 2.810860 -8.268707
v 11.759674 2.810860 -7.426521
v 4.412476 2.810860 0.340698
v 3.225136 2.810860 0.979877
v 1.748390 2.810860 0.322834
v 10.783951 2.810860 -5.490944
v 9.930496 2.810860 -3.926052
v 11.759674 5.029480 -7.426521
v 11.942436 5.029480 -8.268707
v 3.225136 5.029480 0.979877
v 4.412476 5.029480 0.340698
v 1.748390 5.029480 0.322834
v 9.930496 5.029480 -3.926052
v 10.783951 5.029480 -5.490944
v -11.779045 2.810860 -19.670631
v -12.155807 2.810860 -18.931190
v -12.155807 5.029480 -18.931190
v -11.779045 5.029480 -19.670631
v -5.078247 2.810860 -24.517738
v -5.078247 5.029480 -24.517738
v 5.660484 2.810860 -20.968491
v -0.656921 2.810860 -18.898758
v -0.888809 2.810860 -25.143921
v -0.888809 5.029480 -25.143921
v 5.660484 5.029480 -20.968491
v -0.656921 5.029480 -18.898758
v 3.285530 2.810860 -24.502647
v 3.285530 5.029480 -24.502647
v 6.873039 2.810860 -22.658188
v 6.873039 5.029480 -22.658188
v -9.950317 2.810860 -2.084682
v -9.950317 5.029480 -2.084682
v 9.839920 2.810860 -19.706406
v 9.839920 5.029480 -19.706406
v -3.483864 2.810860 -6.025558
v -3.487770 2.810860 -5.518288
v -3.483864 5.029480 -6.025558
v -3.487770 5.029480 -5.518288
v 5.250542 2.810860 -13.965378
v 5.246216 2.810860 -14.484932
v 5.246216 5.029480 -14.484932
v 5.250542 5.029480 -13.965378
v 4.079575 2.810860 -15.764183
v -5.063148 2.810860 0.900078
v -0.652084 2.810860 -1.557339
v 11.010201 2.810860 -6.045090
v -0.652084 2.810860 -2.057884
v -5.063148 5.029480 0.900078
v 12.153557 2.810860 -13.943756
v 4.079575 5.029480 -15.764183
v -0.652084 5.029480 -1.557339
v 12.021423 2.810860 -14.778038
v 12.065788 2.810860 -14.497902
v -0.652084 5.029480 -2.057884
v 12.153557 5.029480 -13.943756
v -0.919006 2.810860 1.567848
v 12.065788 5.029480 -14.497902
v 12.021423 5.029480 -14.778038
v 11.433952 2.810860 -6.876747
v -0.919006 5.029480 1.567848
v 11.010201 5.029480 -6.045090
v 11.433952 5.029480 -6.876747
v 1.748390 2.810860 -0.550007
v 1.748390 5.029480 -0.550007
v 7.009972 2.810860 -0.959175
v 7.009972 5.029480 -0.959175
v 6.294594 2.810860 -0.594669
v 6.294594 5.029480 -0.594669
v 4.088806 2.810860 -14.801125
v 4.088806 5.029480 -14.801125
vt 0.845563 0.779548
vt 0.430578 0.332097
vt 0.430567 0.221578
vt 0.462498 0.190556
vt 0.488774 0.164081
vt 0.496293 0.149330
vt 0.473150 0.711618
vt 0.488783 0.389597
vt 0.355068 0.260783
vt 0.355080 0.292888
vt 0.502155 0.138274
vt 0.525540 0.089906
vt 0.525545 0.463775
vt 0.502162 0.415406
vt 0.140532 0.190529
vt 0.271476 0.273272
vt 0.188187 0.260470
vt 0.116611 0.223662
vt 0.552197 0.601233
vt 0.172722 0.086388
vt 0.057419 0.164760
vt 0.140532 0.164055
vt 0.266407 0.149309
vt 0.266407 0.138252
vt 0.295299 0.807334
vt 0.149342 0.060844
vt 0.013900 0.066424
vt 0.172723 0.066434
vt 0.807855 0.003906
vt 0.540524 0.003906
vt 0.011265 0.049776
vt 0.149345 0.049785
vt 0.271488 0.280399
vt 0.540526 0.549764
vt 0.188200 0.293199
vt 0.996094 0.003906
vt 0.979340 0.003906
vt 0.948339 0.508567
vt 0.955473 0.003906
vt 0.266414 0.415417
vt 0.266414 0.404360
vt 0.116620 0.330002
vt 0.544439 0.522492
vt 0.603441 0.492448
vt 0.779261 0.033927
vt 0.720344 0.003906
vt 0.640197 0.455664
vt 0.816032 0.070697
vt 0.057425 0.388900
vt 0.469745 0.171207
vt 0.663800 0.430904
vt 0.839647 0.095448
vt 0.827099 0.081762
vt 0.572130 0.327647
vt 0.561065 0.327651
vt 0.736949 0.198740
vt 0.748017 0.198740
vt 0.149346 0.492821
vt 0.149346 0.503877
vt 0.699764 0.358513
vt 0.875637 0.167824
vt 0.015926 0.467284
vt 0.140540 0.363133
vt 0.172726 0.467278
vt 0.140541 0.389611
vt 0.003906 0.608360
vt 0.011267 0.503884
vt 0.013018 0.492827
vt 0.013903 0.487237
vt 0.172727 0.487230
vt 0.640128 0.270093
vt 0.651194 0.270089
vt 0.827102 0.256267
vt 0.816036 0.256267
vt 0.713068 0.275754
vt 0.888974 0.250579
vt 0.688545 0.222943
vt 0.669866 0.222951
vt 0.845792 0.303398
vt 0.864468 0.303398
vt 0.656225 0.048482
vt 0.701297 0.193003
vt 0.572027 0.043229
vt 0.603281 0.059140
vt 0.662548 0.118364
vt 0.669833 0.132647
vt 0.490130 0.704491
vt 0.560960 0.037595
vt 0.877233 0.333333
vt 0.979340 0.512307
vt 0.996094 0.512307
vt 0.852936 0.364220
vt 0.972227 0.512314
vt 0.788903 0.490273
vt 0.609019 0.803475
vt 0.779270 0.467234
vt 0.838514 0.407987
vt 0.845792 0.393702
vt 0.632391 0.073955
vt 0.736956 0.488794
vt 0.748022 0.483157
vt 0.706671 0.003906
vt 0.564328 0.523092
vt 0.497590 0.659803
vt 0.048581 0.352050
vt 0.695152 0.149668
vt 0.003906 0.169312
vt 0.720344 0.831665
vt 0.537241 0.099078
vt 0.430338 0.763040
vt 0.677576 0.149728
vt 0.013015 0.060835
vt 0.531730 0.143393
vt 0.948482 0.676737
vt 0.861333 0.047808
vt 0.904205 0.519430
vt 0.904205 0.683884
vt 0.880810 0.003906
vt 0.668633 0.440474
vt 0.663329 0.047729
vt 0.542276 0.881769
vt 0.542276 0.792443
vt 0.497590 0.792396
vt 0.867227 0.072732
vt 0.955473 0.512314
vt 0.684611 0.098992
vt 0.972227 0.003906
vt 0.891736 0.054935
vt 0.904205 0.004030
vt 0.701737 0.054856
vt 0.897071 0.876255
vt 0.874912 0.099071
vt 0.542276 0.776668
vt 0.497590 0.776621
vt 0.542276 0.694872
vt 0.788903 0.516764
vt 0.788903 0.598990
vt 0.744210 0.599004
vt 0.744210 0.516777
vt 0.497590 0.694825
vt 0.823324 0.055814
vt 0.603751 0.048482
vt 0.616480 0.493601
vt 0.632391 0.055609
vt 0.720344 0.497257
vt 0.836701 0.786991
vt 0.788903 0.681452
vt 0.514435 0.343233
vt 0.705756 0.106119
vt 0.544439 0.029139
vt 0.661125 0.778648
vt 0.003906 0.704491
vt 0.744210 0.681466
vt 0.287929 0.763049
vt 0.687491 0.106119
vt 0.003906 0.549764
vt 0.788903 0.779851
vt 0.552036 0.556891
vt 0.151218 0.807337
vt 0.854005 0.003906
vt 0.003906 0.003906
vt 0.463699 0.556891
vt 0.788903 0.761584
vt 0.696922 0.047599
vt 0.651258 0.444595
vt 0.744210 0.761597
vt 0.015921 0.086375
vt 0.463859 0.601233
vt 0.380833 0.556891
vt 0.380993 0.601233
vt 0.771237 0.786991
vt 0.771201 0.831665
vt 0.536735 0.608360
vt 0.300962 0.556891
vt 0.301122 0.601233
vt 0.003906 0.755922
vt 0.191023 0.181722
vt 0.245346 0.755912
vt 0.147989 0.171183
vt 0.003983 0.807365
vt 0.217340 0.556891
vt 0.217500 0.601233
vt 0.004003 0.160201
vt 0.496300 0.404349
vt 0.462507 0.363120
vt 0.133467 0.556891
vt 0.133627 0.601233
vt 0.712938 0.785874
vt 0.020348 0.115885
vt 0.090562 0.763049
vt 0.143907 0.763049
vt 0.237800 0.711618
vt 0.090639 0.807365
vt 0.049055 0.556891
vt 0.049215 0.601233
vt 0.864472 0.357043
vt 0.688525 0.169298
vt 0.801225 0.459477
vt 0.689102 0.003906
vt 0.004067 0.601233
vt 0.852936 0.876378
vt 0.684544 0.054856
vt 0.003906 0.352047
vt 0.720380 0.786991
vt 0.237797 0.755922
vt 0.143983 0.807365
vt 0.542276 0.659850
vt 0.609019 0.523099
vt 0.707115 0.047599
vt 0.564328 0.803468
vt 0.048581 0.169315
vt 0.695664 0.106119
vt 0.295166 0.763039
vt 0.677031 0.106119
vt 0.430471 0.807334
vt 0.537349 0.143393
vt 0.948482 0.519442
vt 0.861550 0.003906
vt 0.904205 0.676725
vt 0.531622 0.099078
vt 0.880594 0.047808
vt 0.948544 0.683864
vt 0.845563 0.459371
vt 0.663683 0.003906
vt 0.688749 0.047729
vt 0.712938 0.440360
vt 0.823324 0.073269
vt 0.497590 0.881723
vt 0.874592 0.054935
vt 0.701803 0.098992
vt 0.948339 0.003906
vt 0.892055 0.099071
vt 0.904205 0.508690
vt 0.897071 0.364097
vt 0.616480 0.778641
vt 0.677060 0.055611
vt 0.677060 0.073957
vt 0.490134 0.659803
vt 0.744210 0.490286
vt 0.656137 0.003906
vt 0.603663 0.003906
vt 0.867227 0.055277
vt 0.807907 0.048222
vt 0.003907 0.652676
vt 0.288064 0.807337
vt 0.854057 0.048222
vt 0.696477 0.003906
vt 0.003910 0.659803
vt 0.705243 0.149668
vt 0.469745 0.343222
vt 0.836665 0.831665
vt 0.151083 0.763049
vt 0.514435 0.171219
vt 0.904205 0.839823
vt 0.688036 0.149728
vt 0.948544 0.839803
vt 0.661125 0.493608
vt 0.744210 0.779864
vt 0.003906 0.763049
vt 0.245223 0.711618
vt 0.147989 0.181234
vt 0.191023 0.171671
vt 0.003909 0.711618
vt 0.536735 0.652676
vt 0.668633 0.785988
vt 0.020444 0.160201
vt 0.003906 0.556891
vt 0.003906 0.115885
vt 0.473272 0.755912
vt 0.801225 0.779654
vn -0.702244 0.000000 -0.711936
vn -0.543949 0.000000 -0.839118
vn -0.543949 0.000000 -0.839118
vn -0.702244 0.000000 -0.711936
vn -0.891007 0.000000 -0.453989
vn -0.891007 0.000000 -0.453989
vn -0.891007 0.000000 -0.453989
vn -0.891007 0.000000 -0.453989
vn -0.303285 0.000000 -0.952900
vn -0.303285 0.000000 -0.952900
vn -0.900335 0.000000 -0.435198
vn -0.961575 0.000000 -0.274543
vn -0.961575 0.000000 -0.274543
vn -0.900335 0.000000 -0.435198
vn 0.000000 -1.000000 0.000000
vn 0.000000 -1.000000 0.000000
vn 0.000000 -1.000000 0.000000
vn 0.000000 -1.000000 0.000000
vn 0.000000 -1.000000 0.000000
vn 0.000000 -1.000000 0.000000
vn 0.000000 -1.000000 0.000000
vn 0.000000 -1.000000 0.000000
vn 0.000000 -1.000000 -0.000000
vn 0.000000 -1.000000 0.000000
vn 0.000000 -1.000000 -0.000000
vn 0.000000 -1.000000 0.000000
vn 0.000000 -1.000000 0.000000
vn 0.000000 -1.000000 0.000001
vn 0.000000 -1.000000 0.000000
vn 0.000000 -1.000000 0.000001
vn 0.000000 -1.000000 -0.000000
vn 0.000000 -1.000000 -0.000000
vn 0.000000 -1.000000 -0.000000
vn 0.000000 -1.000000 -0.000000
vn 0.000000 -1.000000 0.000000
vn 0.000000 -1.000000 -0.000000
vn 0.000000 -1.000000 -0.000000
vn 0.000000 -1.000000 -0.000000
vn 0.000000 -1.000000 -0.000000
vn 0.001804 0.000000 -0.999998
vn 0.001804 0.000000 -0.999998
vn -0.985164 0.000000 -0.171616
vn -0.985164 0.000000 -0.171616
vn 0.304992 0.000000 -0.952355
vn 0.304992 0.000000 -0.952355
vn -0.974437 0.000000 0.224659
vn -0.974437 0.000000 0.224659
vn -0.974437 0.000000 0.224659
vn -0.974437 0.000000 0.224659
vn -0.999805 0.000000 0.019746
vn -0.999805 0.000000 0.019746
vn -0.999805 0.000000 0.019746
vn -0.999805 0.000000 0.019746
vn 0.590538 0.000000 -0.807010
vn 0.590538 0.000000 -0.807010
vn -0.885841 0.000000 0.463989
vn -0.818487 0.000000 0.574525
vn -0.818487 0.000000 0.574525
vn -0.885841 0.000000 0.463989
vn -0.711571 0.000000 0.702614
vn -0.711571 0.000000 0.702614
vn 0.804375 0.000000 -0.594122
vn 0.804375 0.000000 -0.594122
vn -0.675792 0.000000 0.737093
vn -0.488241 0.000000 0.872709
vn -0.488241 0.000000 0.872709
vn -0.675792 0.000000 0.737093
vn 0.999970 0.000000 0.007700
vn 0.999970 0.000000 0.007700
vn 0.999970 0.000000 0.007700
vn 0.999970 0.000000 0.007700
vn 0.999965 0.000000 -0.008326
vn 0.999965 0.000000 -0.008326
vn 0.999965 0.000000 -0.008326
vn 0.999965 0.000000 -0.008326
vn -0.301775 0.000000 0.953379
vn -0.301775 0.000000 0.953379
vn 0.880508 0.000000 -0.474032
vn 0.880508 0.000000 -0.474032
vn 0.000000 1.000000 0.000000
vn 0.000000 1.000000 -0.000000
vn 0.000000 1.000000 0.000000
vn 0.000000 1.000000 -0.000000
vn 0.000000 1.000000 0.000000
vn 0.000000 1.000000 0.000000
vn 0.000000 1.000000 0.000000
vn 0.000000 1.000000 0.000000
vn 0.000000 1.000000 -0.000000
vn 0.000000 1.000000 0.000000
vn 0.000000 1.000000 0.000001
vn 0.000000 1.000000 -0.000001
vn 0.000000 1.000000 0.000000
vn 0.000000 1.000000 -0.000000
vn 0.000000 1.000000 0.000000
vn 0.000000 1.000000 0.000000
vn 0.000000 1.000000 -0.000000
vn 0.000000 1.000000 0.000001
vn 0.000000 1.000000 -0.000000
vn 0.000000 1.000000 -0.000000
vn 0.000000 1.000000 -0.000001
vn 0.000000 1.000000 0.000000
vn 0.000000 1.000000 -0.000000
vn 0.000000 1.000000 0.000000
vn 0.000000 1.000000 0.000000
vn 0.987691 0.000000 -0.156420
vn 0.987691 0.000000 -0.156420
vn 0.987691 0.000000 -0.156420
vn 0.987691 0.000000 -0.156420
vn -1.000000 0.000000 0.000000
vn -1.000000 0.000000 0.000000
vn -1.000000 0.000000 0.000000
vn -1.000000 0.000000 0.000000
vn -0.009628 0.000000 0.999954
vn -0.009628 0.000000 0.999954
vn 0.987371 0.000000 -0.158423
vn 0.987371 0.000000 -0.158423
vn 0.987371 0.000000 -0.158423
vn 0.987371 0.000000 -0.158423
vn 1.000000 0.000000 0.000000
vn 1.000000 0.000000 0.000000
vn 1.000000 0.000000 0.000000
vn 1.000000 0.000000 0.000000
vn 0.000000 -1.000000 -0.000001
vn 0.000000 -1.000000 -0.000000
vn 0.000000 -1.000000 0.000000
vn 0.000000 -1.000000 0.000000
vn 0.000000 -1.000000 0.000000
vn 0.000000 -1.000000 0.000000
vn 0.000000 -1.000000 0.000000
vn 0.000000 -1.000000 -0.000000
vn 0.000000 -1.000000 -0.000000
vn 0.000000 -1.000000 0.000000
vn 0.000000 -1.000000 0.000000
vn 0.000000 -1.000000 -0.000000
vn 0.000000 -1.000000 0.000000
vn 0.000000 -1.000000 0.000000
vn 0.000000 -1.000000 0.000000
vn 0.000000 -1.000000 0.000000
vn 0.000000 -1.000000 -0.000000
vn 0.000000 -1.000000 0.000000
vn 0.000000 -1.000000 -0.000000
vn 0.000000 -1.000000 0.000000
vn 0.000000 -1.000000 -0.000000
vn 0.224305 0.000000 0.974519
vn 0.224305 0.000000 0.974519
vn 0.977254 0.000000 0.212073
vn 0.977254 0.000000 0.212073
vn 0.977254 0.000000 0.212073
vn 0.977254 0.000000 0.212073
vn 0.000000 1.000000 0.000000
vn 0.000000 1.000000 -0.000000
vn 0.000000 1.000000 0.000000
vn 0.000000 1.000000 -0.000000
vn 0.000000 1.000000 0.000000
vn 0.000000 1.000000 0.000000
vn 0.000000 1.000000 -0.000000
vn 0.000000 1.000000 -0.000000
vn 0.000000 1.000000 0.000000
vn 0.000000 1.000000 0.000000
vn 0.000000 1.000000 -0.000000
vn 0.000000 1.000000 0.000000
vn 0.000000 1.000000 -0.000000
vn 0.000000 1.000000 0.000000
vn 0.000000 1.000000 -0.000000
vn 0.000000 1.000000 -0.000000
vn 0.000000 1.000000 -0.000000
vn 0.000000 1.000000 -0.000000
vn 0.000000 1.000000 0.000000
vn 0.000000 1.000000 0.000000
vn 0.000000 1.000000 0.000000
vn 0.474009 0.000000 0.880520
vn 0.474009 0.000000 0.880520
vn 0.891006 0.000000 0.453991
vn 0.891006 0.000000 0.453991
vn 0.891006 0.000000 0.453991
vn 0.891006 0.000000 0.453991
vn 0.768429 0.000000 0.639935
vn 0.877925 0.000000 0.478799
vn 0.877925 0.000000 0.478799
vn 0.768429 0.000000 0.639935
vn 0.077531 0.000000 0.996990
vn 0.675556 0.000000 0.737308
vn 0.675556 0.000000 0.737308
vn 0.077531 0.000000 0.996990
vn 0.000000 1.000000 -0.000001
vn 0.000000 1.000000 0.000001
vn 0.000000 1.000000 -0.000001
vn 0.000000 1.000000 0.000001
vn 0.000000 -1.000000 -0.000001
vn 0.000000 -1.000000 -0.000001
vn 0.000000 -1.000000 0.000000
vn 0.000000 -1.000000 0.000000
vn -0.999995 0.000000 -0.003277
vn -0.999995 0.000000 -0.003277
vn -0.999995 0.000000 -0.003277
vn -0.999995 0.000000 -0.003277
vn 0.999954 0.000000 -0.009585
vn 0.999954 0.000000 -0.009585
vn 0.999954 0.000000 -0.009585
vn 0.999954 0.000000 -0.009585
vn 0.002910 0.000000 -0.999996
vn 0.002910 0.000000 -0.999996
vn 0.002910 0.000000 -0.999996
vn 0.002910 0.000000 -0.999996
vn 0.001902 0.000000 0.999998
vn 0.001902 0.000000 0.999998
vn 0.001902 0.000000 0.999998
vn 0.001902 0.000000 0.999998
vn 0.003132 0.000000 -0.999995
vn 0.003132 0.000000 -0.999995
vn 0.003132 0.000000 -0.999995
vn 0.003132 0.000000 -0.999995
vn 0.009824 0.000000 0.999952
vn 0.009824 0.000000 0.999952
vn 0.006705 0.000000 -0.999978
vn 0.006705 0.000000 -0.999978
vn 0.006705 0.000000 -0.999978
vn 0.006705 0.000000 -0.999978
vn 0.001759 0.000000 0.999998
vn 0.001759 0.000000 0.999998
vn 0.001759 0.000000 0.999998
vn 0.001759 0.000000 0.999998
vn -0.002882 0.000000 0.999996
vn -0.002882 0.000000 0.999996
vn -0.002882 0.000000 0.999996
vn -0.002882 0.000000 0.999996
vn -0.003061 0.000000 -0.999995
vn -0.003061 0.000000 -0.999995
vn -0.003061 0.000000 -0.999995
vn -0.003061 0.000000 -0.999995
vn -0.002821 0.000000 0.999996
vn -0.002821 0.000000 0.999996
vn -0.002821 0.000000 0.999996
vn -0.002821 0.000000 0.999996
vn -0.002473 0.000000 -0.999997
vn -0.002473 0.000000 -0.999997
vn -0.002473 0.000000 -0.999997
vn -0.002473 0.000000 -0.999997
vn -0.001799 0.000000 0.999998
vn -0.001799 0.000000 0.999998
vn -0.001799 0.000000 0.999998
vn -0.001799 0.000000 0.999998
vn 0.001348 0.000000 0.999999
vn 0.001348 0.000000 0.999999
vn 0.001348 0.000000 0.999999
vn 0.001348 0.000000 0.999999
vn 0.001916 0.000000 -0.999998
vn 0.001916 0.000000 -0.999998
vn 0.001916 0.000000 -0.999998
vn 0.001916 0.000000 -0.999998
vn -0.001668 0.000000 -0.999999
vn -0.001668 0.000000 -0.999999
vn -0.001668 0.000000 -0.999999
vn -0.001668 0.000000 -0.999999
vn 0.000000 0.000000 1.000000
vn 0.000000 0.000000 1.000000
vn 0.000000 0.000000 1.000000
vn 0.000000 0.000000 1.000000
vn 0.000000 0.000000 -1.000000
vn 0.000000 0.000000 -1.000000
vn 0.000000 0.000000 -1.000000
vn 0.000000 0.000000 -1.000000
vn 0.000000 0.000000 1.000000
vn 0.000000 0.000000 1.000000
vn 0.000000 0.000000 1.000000
vn 0.000000 0.000000 1.000000
vn 0.000000 0.000000 -1.000000
vn 0.000000 0.000000 -1.000000
vn 0.000000 0.000000 -1.000000
vn 0.000000 0.000000 -1.000000
s 1
g sun_lp sun
usemtl blinn1SG
f 4/267/1 3/194/2 2/195/3 1/200/4
s off
f 45/268/5 46/189/6 47/266/7 48/183/8
s 1
f 49/187/9 2/195/3 3/194/2 50/186/10
s 2
f 8/206/11 6/193/12 11/190/13 13/191/14
s 3
f 1/4/15 2/3/16 51/15/17
f 2/3/16 49/9/18 51/15/17
f 49/9/18 53/16/19 51/15/17
f 53/16/19 57/17/20 51/15/17
f 57/17/20 59/18/21 51/15/17
f 29/167/22 73/20/23 63/21/24
f 59/18/21 63/21/24 51/15/17
f 51/15/17 63/21/24 19/22/25
f 63/21/24 73/20/23 19/22/25
f 19/22/25 73/20/23 52/23/26
f 52/23/26 73/20/23 7/24/27
f 83/112/28 70/26/29 82/27/30
f 82/27/30 70/26/29 99/28/31
f 23/161/32 5/30/33 79/31/34
f 79/31/34 5/30/33 69/32/35
f 5/30/33 6/12/36 69/32/35
f 6/12/36 8/11/37 69/32/35
f 69/32/35 8/11/37 70/26/29
f 70/26/29 8/11/37 99/28/31
f 99/28/31 8/11/37 73/20/23
f 73/20/23 8/11/37 7/24/27
f 19/22/25 52/23/26 45/5/38
f 45/5/38 52/23/26 46/6/39
s 1
f 53/182/40 49/187/9 50/186/10 54/181/41
s 2
f 6/193/12 5/180/42 12/259/43 11/190/13
s 1
f 57/175/44 53/182/40 54/181/41 58/174/45
s off
f 10/202/46 9/130/47 16/230/48 15/126/49
f 52/261/50 7/179/51 14/262/52 56/177/53
s 1
f 59/170/54 57/175/44 58/174/45 60/169/55
s 7
f 18/251/56 17/172/57 21/171/58 20/146/59
f 17/172/57 61/108/60 62/204/61 21/171/58
s 1
f 63/168/62 59/170/54 60/169/55 64/162/63
s 8
f 26/258/64 25/166/65 28/163/66 27/157/67
s off
f 66/209/68 65/164/69 67/247/70 68/102/71
f 69/255/72 70/111/73 71/214/74 72/155/75
s 8
f 25/166/65 74/153/76 78/147/77 28/163/66
s 1
f 29/19/78 63/168/62 64/162/63 30/158/79
s 9
f 4/185/80 55/63/81 3/2/82
f 3/2/82 55/63/81 50/10/83
f 50/10/83 55/63/81 54/33/84
f 54/33/84 55/63/81 58/35/85
f 58/35/85 55/63/81 60/42/86
f 30/62/87 64/49/88 80/64/89
f 47/184/90 56/41/91 48/8/92
f 48/8/92 56/41/91 22/65/93
f 24/156/94 85/67/95 12/34/96
f 85/67/95 72/59/97 12/34/96
f 12/34/96 72/59/97 11/13/98
f 11/13/98 72/59/97 13/14/99
f 72/59/97 71/58/100 13/14/99
f 87/68/101 88/69/102 71/58/100
f 88/69/102 100/70/103 71/58/100
f 71/58/100 100/70/103 13/14/99
f 13/14/99 100/70/103 14/40/104
f 100/70/103 80/64/89 14/40/104
f 60/42/86 55/63/81 64/49/88
f 55/63/81 22/65/93 64/49/88
f 64/49/88 22/65/93 80/64/89
f 56/41/91 14/40/104 22/65/93
f 80/64/89 22/65/93 14/40/104
s off
f 83/216/105 82/113/106 88/220/107 87/109/108
f 77/212/109 75/149/110 81/249/111 84/106/112
s 8
f 74/153/76 86/138/113 90/137/114 78/147/77
s off
f 23/29/115 79/160/116 85/246/117 24/243/118
f 35/242/119 93/124/120 94/227/121 42/141/122
s 14
f 33/197/123 34/82/124 35/77/125
f 34/82/124 86/75/126 35/77/125
f 26/165/127 75/72/128 25/51/129
f 25/51/129 75/72/128 74/60/130
f 74/60/130 75/72/128 86/75/126
f 86/75/126 75/72/128 35/77/125
f 35/77/125 75/72/128 93/78/131
f 36/83/132 37/84/133 66/54/134
f 37/84/133 95/85/135 66/54/134
f 95/85/135 97/86/136 66/54/134
f 97/86/136 93/78/131 66/54/134
f 89/150/137 76/88/138 18/43/139
f 76/88/138 65/55/140 18/43/139
f 18/43/139 65/55/140 17/44/141
f 17/44/141 65/55/140 61/47/142
f 65/55/140 66/54/134 61/47/142
f 75/72/128 77/71/143 93/78/131
f 93/78/131 77/71/143 66/54/134
f 77/71/143 61/47/142 66/54/134
s 8
f 86/138/113 34/139/144 40/136/145 90/137/114
s off
f 32/232/146 31/132/147 39/229/148 38/128/149
s 18
f 41/196/150 42/80/151 40/89/152
f 40/89/152 42/80/151 90/76/153
f 27/53/154 28/52/155 81/73/156
f 28/52/155 78/61/157 81/73/156
f 78/61/157 90/76/153 81/73/156
f 90/76/153 42/80/151 81/73/156
f 42/80/151 94/79/158 81/73/156
f 44/101/159 68/57/160 43/96/161
f 43/96/161 68/57/160 96/97/162
f 96/97/162 68/57/160 98/98/163
f 98/98/163 68/57/160 94/79/158
f 92/145/164 20/46/165 91/100/166
f 91/100/166 20/46/165 67/56/167
f 20/46/165 21/45/168 67/56/167
f 21/45/168 62/48/169 67/56/167
f 67/56/167 62/48/169 68/57/160
f 81/73/156 94/79/158 84/74/170
f 94/79/158 68/57/160 84/74/170
f 68/57/160 62/48/169 84/74/170
s 8
f 34/139/144 33/239/171 41/94/172 40/136/145
s off
f 76/236/173 89/237/174 92/99/175 91/144/176
s 22
f 37/140/177 36/104/178 44/207/179 43/135/180
f 97/123/181 95/134/182 96/133/183 98/122/184
f 95/134/182 37/140/177 43/135/180 96/133/183
s 23
f 39/125/185 15/39/186 38/93/187
f 38/93/187 15/39/186 16/127/188
s 24
f 31/91/189 32/90/190 10/36/191
f 10/36/191 32/90/190 9/37/192
s off
f 51/224/193 19/199/194 22/225/195 55/120/196
f 99/218/197 73/118/198 80/221/199 100/115/200
f 100/219/201 88/116/202 82/217/203 99/114/204
f 70/215/205 83/25/206 87/213/207 71/110/208
f 72/252/209 85/154/210 79/245/211 69/159/212
s 22
f 93/228/213 97/123/181 98/122/184 94/121/214
s off
f 42/241/215 41/240/216 33/81/217 35/142/218
f 73/222/219 29/256/220 30/254/221 80/117/222
f 84/211/223 62/105/224 61/203/225 77/107/226
f 75/250/227 26/50/228 27/253/229 81/148/230
f 56/260/231 47/7/232 46/269/233 52/178/234
f 7/263/235 8/192/236 13/205/237 14/176/238
f 55/223/239 4/1/240 1/270/241 51/198/242
f 65/257/243 76/151/244 91/235/245 67/143/246
f 68/208/247 44/95/248 36/210/249 66/103/250
f 19/226/251 45/188/252 48/265/253 22/119/254
f 16/38/255 9/233/256 32/129/257 38/231/258
f 18/152/259 20/248/260 92/238/261 89/87/262
f 24/66/263 12/173/264 5/264/265 23/244/266
f 15/201/267 39/92/268 31/234/269 10/131/270
